<?xml version="1.0" encoding="utf-8"?>
<svg viewBox="0 0 500 500" xmlns="http://www.w3.org/2000/svg">
  <rect x="-137.276" y="207.565" width="1296.953" height="339.247" fill="#e6721c" style=""/>
  <path d="M -152.509 515.643 L -145.592 510.423 C -138.531 505.201 -124.697 494.761 -110.718 491.932 C -96.74 489.104 -82.906 493.891 -68.928 481.405 C -54.949 468.961 -41.115 439.204 -27.137 433.94 C -13.159 428.633 0.675 447.775 14.654 449.211 C 28.632 450.689 42.466 434.419 56.444 420.148 C 70.423 405.879 84.257 393.523 98.235 378.514 C 112.213 363.505 126.048 345.842 140.026 348.583 C 154.004 351.323 167.838 374.555 181.817 404.051 C 195.795 433.549 209.629 469.396 223.607 480.534 C 237.586 491.715 251.42 478.229 265.398 446.818 C 279.376 415.45 293.211 366.115 307.189 360.634 C 321.167 355.108 335.001 393.393 348.98 417.19 C 362.958 440.944 376.792 450.254 390.77 443.207 C 404.749 436.159 418.583 412.84 432.561 409.142 C 446.539 405.444 460.373 421.367 474.64 437.899 C 488.762 454.431 503.173 471.572 517.295 462.132 C 531.562 452.691 545.396 416.755 559.374 410.36 C 573.352 403.965 587.187 427.197 601.165 445.512 C 615.143 463.872 628.977 477.358 642.956 467.221 C 656.934 457.041 670.768 423.281 684.746 413.927 C 698.725 404.574 712.559 419.627 726.537 409.707 C 740.515 399.788 754.35 364.81 768.328 349.888 C 782.306 334.965 796.14 340.012 810.119 358.241 C 824.097 376.426 837.931 407.749 851.909 410.925 C 865.888 414.145 879.722 389.173 893.7 388.955 C 907.678 388.738 921.512 413.275 935.491 432.765 C 949.469 452.256 963.303 466.786 977.281 461.479 C 991.26 456.171 1005.094 431.112 1019.072 423.759 C 1033.05 416.451 1046.885 426.892 1060.863 429.285 C 1074.841 431.678 1088.675 426.022 1102.654 409.838 C 1116.632 393.698 1130.466 366.985 1137.527 353.672 L 1144.444 340.316 L 1144.444 548.707 L 1137.527 548.707 C 1130.466 548.707 1116.632 548.707 1102.654 548.707 C 1088.675 548.707 1074.841 548.707 1060.863 548.707 C 1046.885 548.707 1033.05 548.707 1019.072 548.707 C 1005.094 548.707 991.26 548.707 977.281 548.707 C 963.303 548.707 949.469 548.707 935.491 548.707 C 921.512 548.707 907.678 548.707 893.7 548.707 C 879.722 548.707 865.888 548.707 851.909 548.707 C 837.931 548.707 824.097 548.707 810.119 548.707 C 796.14 548.707 782.306 548.707 768.328 548.707 C 754.35 548.707 740.515 548.707 726.537 548.707 C 712.559 548.707 698.725 548.707 684.746 548.707 C 670.768 548.707 656.934 548.707 642.956 548.707 C 628.977 548.707 615.143 548.707 601.165 548.707 C 587.187 548.707 573.352 548.707 559.374 548.707 C 545.396 548.707 531.562 548.707 517.295 548.707 C 503.173 548.707 488.762 548.707 474.64 548.707 C 460.373 548.707 446.539 548.707 432.561 548.707 C 418.583 548.707 404.749 548.707 390.77 548.707 C 376.792 548.707 362.958 548.707 348.98 548.707 C 335.001 548.707 321.167 548.707 307.189 548.707 C 293.211 548.707 279.376 548.707 265.398 548.707 C 251.42 548.707 237.586 548.707 223.607 548.707 C 209.629 548.707 195.795 548.707 181.817 548.707 C 167.838 548.707 154.004 548.707 140.026 548.707 C 126.048 548.707 112.213 548.707 98.235 548.707 C 84.257 548.707 70.423 548.707 56.444 548.707 C 42.466 548.707 28.632 548.707 14.654 548.707 C 0.675 548.707 -13.159 548.707 -27.137 548.707 C -41.115 548.707 -54.949 548.707 -68.928 548.707 C -82.906 548.707 -96.74 548.707 -110.718 548.707 C -124.697 548.707 -138.531 548.707 -145.592 548.707 L -152.509 548.707 L -152.509 515.643 Z" fill="#ffe000" stroke-linecap="round" stroke-linejoin="miter" style=""/>
  <ellipse style="stroke: rgb(0, 0, 0); fill: rgb(255, 0, 0); paint-order: stroke;" cx="339.606" cy="470.878" rx="26.881" ry="27.33"/>
  <ellipse style="stroke: rgb(0, 0, 0); fill: rgb(255, 0, 0); paint-order: stroke;" cx="133.065" cy="458.335" rx="22.849" ry="21.953"/>
  <ellipse style="stroke: rgb(0, 0, 0); fill: rgb(255, 0, 0); paint-order: stroke;" cx="581.094" cy="488.351" rx="31.81" ry="27.778"/>
  <ellipse style="stroke: rgb(0, 0, 0); fill: rgb(255, 0, 0); paint-order: stroke;" cx="782.258" cy="465.503" rx="47.491" ry="51.524"/>
  <ellipse style="stroke: rgb(0, 0, 0); fill: rgb(255, 0, 0); paint-order: stroke;" cx="1047.939" cy="487.456" rx="31.81" ry="30.466"/>
</svg>